<svg width="44" height="44" viewBox="0 0 44 44" fill="none" xmlns="http://www.w3.org/2000/svg">
<path d="M2 10C2 5.58172 5.58172 2 10 2H34C38.4183 2 42 5.58172 42 10V34C42 38.4183 38.4183 42 34 42H10C5.58172 42 2 38.4183 2 34V10Z" fill="#5651D4"/>
<path d="M31.0037 20.9995V26.0016C31.0037 28.7642 28.7642 31.0037 26.0016 31.0037H17.9983C15.2357 31.0037 12.9962 28.7642 12.9962 26.0016V17.9983C12.9962 15.2357 15.2357 12.9962 17.9983 12.9962H23.0004" stroke="white" stroke-width="1.5" stroke-linecap="round" stroke-linejoin="round"/>
<path d="M24.5471 19.4529C25.9532 20.8595 25.9529 23.1396 24.5465 24.5459C23.1401 25.9522 20.8599 25.9522 19.4535 24.5459C18.0471 23.1396 18.0468 20.8595 19.4529 19.4529C20.1284 18.7772 21.0446 18.3976 22 18.3976C22.9554 18.3976 23.8716 18.7772 24.5471 19.4529" stroke="white" stroke-width="1.5" stroke-linecap="round" stroke-linejoin="round"/>
<path d="M27.0021 14.4969H32.0042" stroke="white" stroke-width="1.5" stroke-linecap="round" stroke-linejoin="round"/>
<path d="M29.5031 16.9979V11.9958" stroke="white" stroke-width="1.5" stroke-linecap="round" stroke-linejoin="round"/>
<path d="M10 4H34V0H10V4ZM40 10V34H44V10H40ZM34 40H10V44H34V40ZM4 34V10H0V34H4ZM10 40C6.68629 40 4 37.3137 4 34H0C0 39.5228 4.47715 44 10 44V40ZM40 34C40 37.3137 37.3137 40 34 40V44C39.5228 44 44 39.5228 44 34H40ZM34 4C37.3137 4 40 6.68629 40 10H44C44 4.47715 39.5228 0 34 0V4ZM10 0C4.47715 0 0 4.47715 0 10H4C4 6.68629 6.68629 4 10 4V0Z" fill="white"/>
</svg>
