<svg width="26" height="26" viewBox="0 0 26 26" fill="none" xmlns="http://www.w3.org/2000/svg">
<path d="M10.509 19.0025V19.5147C10.509 20.1752 10.7715 20.8086 11.2387 21.2754C11.7059 21.7423 12.3395 22.0043 13 22.0038V22.0038C13.6606 22.004 14.2942 21.7418 14.7614 21.2748C15.2286 20.8078 15.491 20.1743 15.491 19.5137V19.0025" stroke="#323232" stroke-width="1.5" stroke-linecap="round" stroke-linejoin="round"/>
<path fill-rule="evenodd" clip-rule="evenodd" d="M18.9495 19.0025C20.0838 19.0025 21.0033 18.083 21.0033 16.9486V16.9486C21.0028 16.3724 20.7741 15.8199 20.367 15.412L19.0025 14.0484V9.99875C19.0025 6.68366 16.3151 3.99625 13 3.99625V3.99625C9.68489 3.99625 6.99748 6.68366 6.99748 9.99875V14.0484L5.63291 15.412C5.22589 15.8199 4.9971 16.3724 4.99664 16.9486V16.9486C4.99664 17.4934 5.21303 18.0158 5.5982 18.4009C5.98338 18.7861 6.50578 19.0025 7.0505 19.0025H18.9495Z" stroke="#323232" stroke-width="1.5" stroke-linecap="round" stroke-linejoin="round"/>
</svg>
