<svg width="26" height="26" viewBox="0 0 26 26" fill="none" xmlns="http://www.w3.org/2000/svg">
<path d="M22.0037 11.9995V17.0016C22.0037 19.7642 19.7642 22.0037 17.0017 22.0037H8.99833C6.23576 22.0037 3.99625 19.7642 3.99625 17.0016V8.9983C3.99625 6.23572 6.23576 3.99622 8.99833 3.99622H14.0004" stroke="#A3A3A3" stroke-width="1.5" stroke-linecap="round" stroke-linejoin="round"/>
<path d="M15.5471 10.453C16.9532 11.8596 16.9529 14.1397 15.5465 15.546C14.1401 16.9523 11.8599 16.9523 10.4535 15.546C9.04705 14.1397 9.0468 11.8596 10.4529 10.453C11.1284 9.77731 12.0446 9.39771 13 9.39771C13.9554 9.39771 14.8716 9.77731 15.5471 10.453" stroke="#A3A3A3" stroke-width="1.5" stroke-linecap="round" stroke-linejoin="round"/>
<path d="M18.0021 5.49691H23.0042" stroke="#A3A3A3" stroke-width="1.5" stroke-linecap="round" stroke-linejoin="round"/>
<path d="M20.5031 7.99793V2.99585" stroke="#A3A3A3" stroke-width="1.5" stroke-linecap="round" stroke-linejoin="round"/>
</svg>
