<svg width="22" height="20" viewBox="0 0 22 20" fill="none" xmlns="http://www.w3.org/2000/svg">
<path fill-rule="evenodd" clip-rule="evenodd" d="M6.50586 15.665C5.81507 15.665 5.25586 16.2243 5.25586 16.915C5.25586 17.6058 5.81507 18.165 6.50586 18.165C7.19665 18.165 7.75586 17.6058 7.75586 16.915C7.75586 16.2243 7.19665 15.665 6.50586 15.665ZM6.50586 14.165C4.98665 14.165 3.75586 15.3958 3.75586 16.915C3.75586 18.4343 4.98665 19.665 6.50586 19.665C8.02507 19.665 9.25586 18.4343 9.25586 16.915C9.25586 15.3958 8.02507 14.165 6.50586 14.165Z" fill="#000"/>
<path fill-rule="evenodd" clip-rule="evenodd" d="M15.4941 15.665C14.8034 15.665 14.2441 16.2243 14.2441 16.915C14.2441 17.6058 14.8034 18.165 15.4941 18.165C16.1849 18.165 16.7441 17.6058 16.7441 16.915C16.7441 16.2243 16.1849 15.665 15.4941 15.665ZM15.4941 14.165C13.9749 14.165 12.7441 15.3958 12.7441 16.915C12.7441 18.4343 13.9749 19.665 15.4941 19.665C17.0134 19.665 18.2441 18.4343 18.2441 16.915C18.2441 15.3958 17.0134 14.165 15.4941 14.165Z" fill="#000"/>
<path fill-rule="evenodd" clip-rule="evenodd" d="M3.729 7.11792C3.03822 7.11792 2.479 7.67713 2.479 8.36792C2.479 9.05871 3.03822 9.61792 3.729 9.61792C4.41979 9.61792 4.979 9.05871 4.979 8.36792C4.979 7.67713 4.41979 7.11792 3.729 7.11792ZM3.729 5.61792C2.20979 5.61792 0.979004 6.84871 0.979004 8.36792C0.979004 9.88713 2.20979 11.1179 3.729 11.1179C5.24822 11.1179 6.479 9.88713 6.479 8.36792C6.479 6.84871 5.24822 5.61792 3.729 5.61792Z" fill="#000"/>
<path fill-rule="evenodd" clip-rule="evenodd" d="M11 1.83496C10.3092 1.83496 9.75 2.39417 9.75 3.08496C9.75 3.77575 10.3092 4.33496 11 4.33496C11.6908 4.33496 12.25 3.77575 12.25 3.08496C12.25 2.39417 11.6908 1.83496 11 1.83496ZM11 0.334961C9.48079 0.334961 8.25 1.56575 8.25 3.08496C8.25 4.60417 9.48079 5.83496 11 5.83496C12.5192 5.83496 13.75 4.60417 13.75 3.08496C13.75 1.56575 12.5192 0.334961 11 0.334961Z" fill="#000"/>
<path fill-rule="evenodd" clip-rule="evenodd" d="M18.271 7.11792C17.5802 7.11792 17.021 7.67713 17.021 8.36792C17.021 9.05871 17.5802 9.61792 18.271 9.61792C18.9618 9.61792 19.521 9.05871 19.521 8.36792C19.521 7.67713 18.9618 7.11792 18.271 7.11792ZM18.271 5.61792C16.7518 5.61792 15.521 6.84871 15.521 8.36792C15.521 9.88713 16.7518 11.1179 18.271 11.1179C19.7902 11.1179 21.021 9.88713 21.021 8.36792C21.021 6.84871 19.7902 5.61792 18.271 5.61792Z" fill="#000"/>
<path fill-rule="evenodd" clip-rule="evenodd" d="M11 9.19385C10.3092 9.19385 9.75 9.75306 9.75 10.4438C9.75 11.1346 10.3092 11.6938 11 11.6938C11.6908 11.6938 12.25 11.1346 12.25 10.4438C12.25 9.75306 11.6908 9.19385 11 9.19385ZM11 7.69385C9.48079 7.69385 8.25 8.92463 8.25 10.4438C8.25 11.9631 9.48079 13.1938 11 13.1938C12.5192 13.1938 13.75 11.9631 13.75 10.4438C13.75 8.92463 12.5192 7.69385 11 7.69385Z" fill="#000"/>
</svg>
