<svg width="24" height="24" viewBox="0 0 24 24" fill="none" xmlns="http://www.w3.org/2000/svg">
<path d="M7.50598 16.915C8.61098 16.915 9.50598 17.81 9.50598 18.915C9.50598 20.02 8.61098 20.915 7.50598 20.915C6.40098 20.915 5.50598 20.02 5.50598 18.915C5.50598 17.81 6.40098 16.915 7.50598 16.915" stroke="#5651D4" stroke-width="1.5" stroke-linecap="round" stroke-linejoin="round"/>
<path d="M16.494 16.915C17.599 16.915 18.494 17.81 18.494 18.915C18.494 20.02 17.599 20.915 16.494 20.915C15.389 20.915 14.494 20.02 14.494 18.915C14.494 17.81 15.389 16.915 16.494 16.915" stroke="#5651D4" stroke-width="1.5" stroke-linecap="round" stroke-linejoin="round"/>
<path d="M4.729 8.36801C5.834 8.36801 6.729 9.26301 6.729 10.368C6.729 11.473 5.834 12.368 4.729 12.368C3.624 12.368 2.729 11.473 2.729 10.368C2.729 9.26301 3.624 8.36801 4.729 8.36801" stroke="#5651D4" stroke-width="1.5" stroke-linecap="round" stroke-linejoin="round"/>
<path d="M12 3.08501C13.105 3.08501 14 3.98001 14 5.08501C14 6.19001 13.105 7.08501 12 7.08501C10.895 7.08501 10 6.19001 10 5.08501C10 3.98001 10.895 3.08501 12 3.08501" stroke="#5651D4" stroke-width="1.5" stroke-linecap="round" stroke-linejoin="round"/>
<path d="M19.271 8.36801C20.376 8.36801 21.271 9.26301 21.271 10.368C21.271 11.473 20.376 12.368 19.271 12.368C18.166 12.368 17.271 11.473 17.271 10.368C17.271 9.26301 18.166 8.36801 19.271 8.36801" stroke="#5651D4" stroke-width="1.5" stroke-linecap="round" stroke-linejoin="round"/>
<path d="M12 10.444C13.105 10.444 14 11.339 14 12.444C14 13.549 13.105 14.444 12 14.444C10.895 14.444 10 13.549 10 12.444C10 11.339 10.895 10.444 12 10.444" stroke="#5651D4" stroke-width="1.5" stroke-linecap="round" stroke-linejoin="round"/>
</svg>
