<svg width="26" height="26" viewBox="0 0 26 26" fill="none" xmlns="http://www.w3.org/2000/svg">
<path d="M15.5581 14.5577C14.9186 15.6361 13.6763 16.2036 12.4425 15.9811C11.2087 15.7585 10.2429 14.7928 10.0204 13.559C9.79789 12.3251 10.3654 11.0829 11.4437 10.4434" stroke="#333333" stroke-width="1.5" stroke-linecap="round" stroke-linejoin="round"/>
<path d="M18.9966 17.9962C17.2718 19.3044 15.1648 20.0095 13 20.0029C9.41288 20.0668 6.09853 18.0954 4.44242 14.9128C3.84752 13.707 3.84752 12.293 4.44242 11.0872C5.27067 9.43785 6.59097 8.08659 8.22071 7.22034" stroke="#333333" stroke-width="1.5" stroke-linecap="round" stroke-linejoin="round"/>
<path d="M21.4273 15.1345C21.4675 15.0584 21.5197 14.9902 21.5576 14.9128C22.1525 13.7069 22.1525 12.293 21.5576 11.0872C19.9015 7.90458 16.5871 5.93317 13 5.99705C12.7751 5.99705 12.5565 6.02706 12.3345 6.04169" stroke="#333333" stroke-width="1.5" stroke-linecap="round" stroke-linejoin="round"/>
<path d="M22.0038 21.0033L4.99667 3.99622" stroke="#333333" stroke-width="1.5" stroke-linecap="round" stroke-linejoin="round"/>
</svg>
