<svg width="22" height="20" viewBox="0 0 22 20" fill="none" xmlns="http://www.w3.org/2000/svg">
<path d="M6.506 14.915C7.611 14.915 8.506 15.81 8.506 16.915C8.506 18.02 7.611 18.915 6.506 18.915C5.401 18.915 4.506 18.02 4.506 16.915C4.506 15.81 5.401 14.915 6.506 14.915" stroke="#5651D4" stroke-width="1.5" stroke-linecap="round" stroke-linejoin="round"/>
<path d="M15.494 14.915C16.599 14.915 17.494 15.81 17.494 16.915C17.494 18.02 16.599 18.915 15.494 18.915C14.389 18.915 13.494 18.02 13.494 16.915C13.494 15.81 14.389 14.915 15.494 14.915" stroke="#5651D4" stroke-width="1.5" stroke-linecap="round" stroke-linejoin="round"/>
<path d="M3.729 6.36801C4.834 6.36801 5.729 7.26301 5.729 8.36801C5.729 9.47301 4.834 10.368 3.729 10.368C2.624 10.368 1.729 9.47301 1.729 8.36801C1.729 7.26301 2.624 6.36801 3.729 6.36801" stroke="#5651D4" stroke-width="1.5" stroke-linecap="round" stroke-linejoin="round"/>
<path d="M11 1.08501C12.105 1.08501 13 1.98001 13 3.08501C13 4.19001 12.105 5.08501 11 5.08501C9.895 5.08501 9 4.19001 9 3.08501C9 1.98001 9.895 1.08501 11 1.08501" stroke="#5651D4" stroke-width="1.5" stroke-linecap="round" stroke-linejoin="round"/>
<path d="M18.271 6.36801C19.376 6.36801 20.271 7.26301 20.271 8.36801C20.271 9.47301 19.376 10.368 18.271 10.368C17.166 10.368 16.271 9.47301 16.271 8.36801C16.271 7.26301 17.166 6.36801 18.271 6.36801" stroke="#5651D4" stroke-width="1.5" stroke-linecap="round" stroke-linejoin="round"/>
<path d="M11 8.444C12.105 8.444 13 9.339 13 10.444C13 11.549 12.105 12.444 11 12.444C9.895 12.444 9 11.549 9 10.444C9 9.339 9.895 8.444 11 8.444" stroke="#5651D4" stroke-width="1.5" stroke-linecap="round" stroke-linejoin="round"/>
</svg>
