<svg width="22" height="17" viewBox="0 0 22 17" fill="none" xmlns="http://www.w3.org/2000/svg">
<path fill-rule="evenodd" clip-rule="evenodd" d="M6.99829 1.76709C5.48423 1.76709 4.25684 2.99448 4.25684 4.50854C4.25684 6.02261 5.48423 7.25 6.99829 7.25C8.51235 7.25 9.73974 6.02261 9.73974 4.50854C9.73974 2.99448 8.51235 1.76709 6.99829 1.76709ZM2.75684 4.50854C2.75684 2.16605 4.6558 0.26709 6.99829 0.26709C9.34078 0.26709 11.2397 2.16605 11.2397 4.50854C11.2397 6.85103 9.34078 8.75 6.99829 8.75C4.6558 8.75 2.75684 6.85103 2.75684 4.50854Z" fill="#000"/>
<path fill-rule="evenodd" clip-rule="evenodd" d="M16.002 3.7478C15.0349 3.7478 14.251 4.53177 14.251 5.49884C14.251 6.46592 15.0349 7.24989 16.002 7.24989C16.9691 7.24989 17.7531 6.46592 17.7531 5.49884C17.7531 4.53177 16.9691 3.7478 16.002 3.7478ZM12.751 5.49884C12.751 3.70334 14.2065 2.2478 16.002 2.2478C17.7975 2.2478 19.2531 3.70334 19.2531 5.49884C19.2531 7.29434 17.7975 8.74989 16.002 8.74989C14.2065 8.74989 12.751 7.29434 12.751 5.49884Z" fill="#000"/>
<path fill-rule="evenodd" clip-rule="evenodd" d="M4.98027 11.7512C3.19356 11.7512 1.74561 13.1992 1.74561 14.9859V16.0033C1.74561 16.4175 1.40982 16.7533 0.995605 16.7533C0.581392 16.7533 0.245605 16.4175 0.245605 16.0033V14.9859C0.245605 12.3707 2.36513 10.2512 4.98027 10.2512H9.01595C11.6311 10.2512 13.7506 12.3707 13.7506 14.9859V16.0033C13.7506 16.4175 13.4148 16.7533 13.0006 16.7533C12.5864 16.7533 12.2506 16.4175 12.2506 16.0033V14.9859C12.2506 13.1992 10.8026 11.7512 9.01595 11.7512H4.98027Z" fill="#000"/>
<path fill-rule="evenodd" clip-rule="evenodd" d="M15.252 11.0012C15.252 10.587 15.5877 10.2512 16.002 10.2512H17.1044C19.7195 10.2512 21.8391 12.3707 21.8391 14.9859V16.0033C21.8391 16.4175 21.5033 16.7533 21.0891 16.7533C20.6749 16.7533 20.3391 16.4175 20.3391 16.0033V14.9859C20.3391 13.1992 18.8911 11.7512 17.1044 11.7512H16.002C15.5877 11.7512 15.252 11.4154 15.252 11.0012Z" fill="#000"/>
</svg>
