<svg width="24" height="24" viewBox="0 0 24 24" fill="none" xmlns="http://www.w3.org/2000/svg">
<path d="M9.50897 18.0025V18.5147C9.50897 19.8894 10.6234 21.0038 11.998 21.0038H12C12.6604 21.004 13.2939 20.7419 13.761 20.2751C14.2282 19.8084 14.4908 19.1751 14.491 18.5147V18.0025" stroke="#A3A3A3" stroke-width="1.5" stroke-linecap="round" stroke-linejoin="round"/>
<path fill-rule="evenodd" clip-rule="evenodd" d="M17.9495 18.0025C19.0838 18.0025 20.0033 17.083 20.0033 15.9486V15.9486C20.0028 15.3724 19.7741 14.8199 19.367 14.412L18.0025 13.0484V8.99875C18.0025 5.68366 15.3151 2.99625 12 2.99625V2.99625C8.68489 2.99625 5.99748 5.68366 5.99748 8.99875V13.0484L4.63291 14.412C4.22589 14.8199 3.9971 15.3724 3.99664 15.9486V15.9486C3.99664 16.4934 4.21303 17.0158 4.5982 17.4009C4.98338 17.7861 5.50578 18.0025 6.0505 18.0025H17.9495Z" stroke="#A3A3A3" stroke-width="1.5" stroke-linecap="round" stroke-linejoin="round"/>
<path d="M13.4998 9.85327L10.5002 12.8545" stroke="#A3A3A3" stroke-width="1.5" stroke-linecap="round" stroke-linejoin="round"/>
<path d="M10.4994 9.8541L13.5006 12.8537" stroke="#A3A3A3" stroke-width="1.5" stroke-linecap="round" stroke-linejoin="round"/>
</svg>
