<svg width="274" height="200" viewBox="0 0 274 200" fill="none" xmlns="http://www.w3.org/2000/svg">
<path d="M161.774 199.823C207.121 199.823 243.883 198.053 243.883 195.869C243.883 193.686 207.121 191.916 161.774 191.916C116.426 191.916 79.6641 193.686 79.6641 195.869C79.6641 198.053 116.426 199.823 161.774 199.823Z" fill="#E3E5FC"/>
<path d="M267.817 19.9282C267.817 14.7054 263.56 10.433 258.355 10.433H65.5285C60.3242 10.433 56.0669 14.7054 56.0669 19.9282V41.5206H267.819V19.9282H267.817Z" fill="#A7ADFF"/>
<rect x="56.0648" y="41.5206" width="211.752" height="129.048" fill="#E3E5FC"/>
<path d="M95.5233 82.3274H76.6695C73.9232 82.3274 71.6756 80.0718 71.6756 77.3158V60.2028C71.6756 57.4467 73.9232 55.1912 76.6695 55.1912H95.5233C98.2696 55.1912 100.517 57.4467 100.517 60.2028V77.3158C100.517 80.0718 98.2696 82.3274 95.5233 82.3274Z" fill="white"/>
<path d="M145.851 82.3274H126.998C124.251 82.3274 122.004 80.0718 122.004 77.3158V60.2028C122.004 57.4467 124.251 55.1912 126.998 55.1912H145.851C148.598 55.1912 150.845 57.4467 150.845 60.2028V77.3158C150.845 80.0718 148.598 82.3274 145.851 82.3274Z" fill="white"/>
<path d="M196.179 82.3274H177.326C174.579 82.3274 172.332 80.0718 172.332 77.3158V60.2028C172.332 57.4467 174.579 55.1912 177.326 55.1912H196.179C198.926 55.1912 201.173 57.4467 201.173 60.2028V77.3158C201.173 80.0718 198.926 82.3274 196.179 82.3274Z" fill="white"/>
<path d="M246.507 82.3274H227.654C224.907 82.3274 222.66 80.0718 222.66 77.3158V60.2028C222.66 57.4467 224.907 55.1912 227.654 55.1912H246.507C249.254 55.1912 251.501 57.4467 251.501 60.2028V77.3158C251.501 80.0718 249.254 82.3274 246.507 82.3274Z" fill="white"/>
<path d="M95.5233 118.822H76.6695C73.9232 118.822 71.6756 116.566 71.6756 113.81V96.6969C71.6756 93.9408 73.9232 91.6853 76.6695 91.6853H95.5233C98.2696 91.6853 100.517 93.9408 100.517 96.6969V113.81C100.517 116.566 98.2696 118.822 95.5233 118.822Z" fill="white"/>
<path d="M145.851 118.822H126.998C124.251 118.822 122.004 116.566 122.004 113.81V96.6969C122.004 93.9408 124.251 91.6853 126.998 91.6853H145.851C148.598 91.6853 150.845 93.9408 150.845 96.6969V113.81C150.845 116.566 148.598 118.822 145.851 118.822Z" fill="white"/>
<path d="M196.179 118.822H177.326C174.579 118.822 172.332 116.566 172.332 113.81V96.6969C172.332 93.9408 174.579 91.6853 177.326 91.6853H196.179C198.926 91.6853 201.173 93.9408 201.173 96.6969V113.81C201.173 116.566 198.926 118.822 196.179 118.822Z" fill="white"/>
<path d="M246.507 118.822H227.654C224.907 118.822 222.66 116.566 222.66 113.81V96.6969C222.66 93.9408 224.907 91.6853 227.654 91.6853H246.507C249.254 91.6853 251.501 93.9408 251.501 96.6969V113.81C251.501 116.566 249.254 118.822 246.507 118.822Z" fill="white"/>
<path d="M95.5233 155.316H76.6695C73.9232 155.316 71.6756 153.06 71.6756 150.304V133.191C71.6756 130.435 73.9232 128.179 76.6695 128.179H95.5233C98.2696 128.179 100.517 130.435 100.517 133.191V150.304C100.517 153.06 98.2696 155.316 95.5233 155.316Z" fill="white"/>
<path d="M145.851 155.316H126.998C124.251 155.316 122.004 153.06 122.004 150.304V133.191C122.004 130.435 124.251 128.179 126.998 128.179H145.851C148.598 128.179 150.845 130.435 150.845 133.191V150.304C150.845 153.06 148.598 155.316 145.851 155.316Z" fill="white"/>
<path d="M196.179 155.316H177.326C174.579 155.316 172.332 153.06 172.332 150.304V133.191C172.332 130.435 174.579 128.179 177.326 128.179H196.179C198.926 128.179 201.173 130.435 201.173 133.191V150.304C201.173 153.06 198.926 155.316 196.179 155.316Z" fill="white"/>
<path d="M246.507 155.316H227.654C224.907 155.316 222.66 153.06 222.66 150.304V133.191C222.66 130.435 224.907 128.179 227.654 128.179H246.507C249.254 128.179 251.501 130.435 251.501 133.191V150.304C251.501 153.06 249.254 155.316 246.507 155.316Z" fill="white"/>
<path d="M104.101 31.8205C108.006 31.8205 111.172 28.6435 111.172 24.7244C111.172 20.8053 108.006 17.6283 104.101 17.6283C100.196 17.6283 97.0301 20.8053 97.0301 24.7244C97.0301 28.6435 100.196 31.8205 104.101 31.8205Z" fill="#5651D4"/>
<path d="M104.379 27.8543C102.234 27.8543 100.479 26.0929 100.479 23.9409V4.06124C100.479 1.90918 102.234 0.147827 104.379 0.147827C106.523 0.147827 108.278 1.90918 108.278 4.06124V23.9409C108.278 26.0929 106.523 27.8543 104.379 27.8543Z" fill="#F44E4E"/>
<path d="M142.528 31.8205C146.434 31.8205 149.599 28.6435 149.599 24.7244C149.599 20.8053 146.434 17.6283 142.528 17.6283C138.623 17.6283 135.457 20.8053 135.457 24.7244C135.457 28.6435 138.623 31.8205 142.528 31.8205Z" fill="#5651D4"/>
<path d="M142.806 27.8543C140.662 27.8543 138.907 26.0929 138.907 23.9409V4.06124C138.907 1.90918 140.662 0.147827 142.806 0.147827C144.951 0.147827 146.706 1.90918 146.706 4.06124V23.9409C146.706 26.0929 144.951 27.8543 142.806 27.8543Z" fill="#F44E4E"/>
<path d="M180.956 31.8205C184.861 31.8205 188.027 28.6435 188.027 24.7244C188.027 20.8053 184.861 17.6283 180.956 17.6283C177.051 17.6283 173.885 20.8053 173.885 24.7244C173.885 28.6435 177.051 31.8205 180.956 31.8205Z" fill="#5651D4"/>
<path d="M181.234 27.8543C179.089 27.8543 177.334 26.0929 177.334 23.9409V4.06124C177.334 1.90918 179.089 0.147827 181.234 0.147827C183.378 0.147827 185.133 1.90918 185.133 4.06124V23.9409C185.133 26.0929 183.378 27.8543 181.234 27.8543Z" fill="#F44E4E"/>
<path d="M219.383 31.8205C223.288 31.8205 226.454 28.6435 226.454 24.7244C226.454 20.8053 223.288 17.6283 219.383 17.6283C215.478 17.6283 212.312 20.8053 212.312 24.7244C212.312 28.6435 215.478 31.8205 219.383 31.8205Z" fill="#5651D4"/>
<path d="M219.661 27.8543C217.516 27.8543 215.761 26.0929 215.761 23.9409V4.06124C215.761 1.90918 217.516 0.147827 219.661 0.147827C221.805 0.147827 223.56 1.90918 223.56 4.06124V23.9409C223.56 26.0929 221.805 27.8543 219.661 27.8543Z" fill="#F44E4E"/>
<path d="M82.9323 112.982H82.9344L82.9323 112.98V112.982Z" fill="#F44E4E"/>
<path d="M96.7565 99.1087C96.3924 98.7434 95.7968 98.7434 95.4328 99.1087L83.5952 110.988L84.9189 112.317L96.7565 100.437C97.1205 100.072 97.1205 99.4741 96.7565 99.1087Z" fill="#F44E4E"/>
<path d="M82.9323 111.654L83.5931 110.988L78.2394 105.616C77.8753 105.25 77.2798 105.25 76.9157 105.616C76.5516 105.981 76.5516 106.579 76.9157 106.944L82.9323 112.982C82.5704 112.617 82.5704 112.019 82.9323 111.654Z" fill="#F44E4E"/>
<path d="M82.9323 111.654C82.5682 112.019 82.5682 112.617 82.9323 112.982C83.2964 113.347 83.8919 113.347 84.256 112.982L84.9168 112.319L83.5931 110.99L82.9323 111.654Z" fill="#F44E4E"/>
<path fill-rule="evenodd" clip-rule="evenodd" d="M182.709 148.824C182.93 149.045 183.22 149.155 183.511 149.155C183.801 149.155 184.091 149.045 184.308 148.822L196.809 136.277C197.251 135.833 197.251 135.113 196.809 134.669C196.367 134.226 195.649 134.228 195.207 134.669L183.508 146.41L178.294 141.176C177.868 140.748 177.117 140.748 176.692 141.176C176.48 141.392 176.362 141.675 176.362 141.981C176.362 142.287 176.48 142.572 176.692 142.786L182.709 148.824ZM176.974 141.457C177.113 141.318 177.298 141.242 177.496 141.242C177.694 141.242 177.879 141.32 178.02 141.457L183.513 146.969L195.491 134.95C195.78 134.663 196.249 134.661 196.537 134.95C196.823 135.238 196.823 135.709 196.537 135.998L184.037 148.543C183.748 148.83 183.279 148.832 182.991 148.543L176.974 142.505C176.837 142.365 176.759 142.18 176.759 141.981C176.759 141.782 176.835 141.597 176.974 141.457Z" fill="#F44E4E"/>
<path d="M146.346 61.8226C145.982 61.4572 145.386 61.4572 145.022 61.8226L133.185 73.7022L134.508 75.0306L146.346 63.151C146.708 62.7856 146.708 62.188 146.346 61.8226Z" fill="#F44E4E"/>
<path d="M132.522 74.3675L133.183 73.7022L127.829 68.3294C127.465 67.9641 126.869 67.9641 126.505 68.3294C126.141 68.6948 126.141 69.2925 126.505 69.6578L132.522 75.6959C132.158 75.3305 132.158 74.7328 132.522 74.3675Z" fill="#F44E4E"/>
<path d="M132.522 74.3675C132.158 74.7329 132.158 75.3305 132.522 75.6959C132.886 76.0613 133.481 76.0613 133.845 75.6959L134.506 75.0328L133.183 73.7043L132.522 74.3675Z" fill="#F44E4E"/>
<path d="M146.239 98.4858H126.612C125.994 98.4858 125.489 97.9789 125.489 97.358C125.489 96.7371 125.994 96.2302 126.612 96.2302H146.239C146.857 96.2302 147.362 96.7371 147.362 97.358C147.362 97.9789 146.857 98.4858 146.239 98.4858Z" fill="#E3E5FC"/>
<path d="M146.239 103.964H126.612C125.994 103.964 125.489 103.457 125.489 102.836C125.489 102.215 125.994 101.709 126.612 101.709H146.239C146.857 101.709 147.362 102.215 147.362 102.836C147.362 103.457 146.857 103.964 146.239 103.964Z" fill="#E3E5FC"/>
<path d="M146.239 109.442H126.612C125.994 109.442 125.489 108.936 125.489 108.315C125.489 107.694 125.994 107.187 126.612 107.187H146.239C146.857 107.187 147.362 107.694 147.362 108.315C147.362 108.936 146.857 109.442 146.239 109.442Z" fill="#E3E5FC"/>
<path d="M146.239 114.921H126.612C125.994 114.921 125.489 114.414 125.489 113.793C125.489 113.172 125.994 112.665 126.612 112.665H146.239C146.857 112.665 147.362 113.172 147.362 113.793C147.362 114.414 146.857 114.921 146.239 114.921Z" fill="#E3E5FC"/>
<path d="M95.9105 135.269H76.2844C75.6657 135.269 75.1606 134.762 75.1606 134.141C75.1606 133.521 75.6657 133.014 76.2844 133.014H95.9105C96.5292 133.014 97.0343 133.521 97.0343 134.141C97.0343 134.762 96.5271 135.269 95.9105 135.269Z" fill="#E3E5FC"/>
<path d="M95.9105 140.748H76.2844C75.6657 140.748 75.1606 140.241 75.1606 139.62C75.1606 138.999 75.6657 138.492 76.2844 138.492H95.9105C96.5292 138.492 97.0343 138.999 97.0343 139.62C97.0343 140.241 96.5271 140.748 95.9105 140.748Z" fill="#E3E5FC"/>
<path d="M95.9105 146.226H76.2844C75.6657 146.226 75.1606 145.719 75.1606 145.098C75.1606 144.477 75.6657 143.97 76.2844 143.97H95.9105C96.5292 143.97 97.0343 144.477 97.0343 145.098C97.0343 145.719 96.5271 146.226 95.9105 146.226Z" fill="#E3E5FC"/>
<path d="M95.9105 151.706H76.2844C75.6657 151.706 75.1606 151.199 75.1606 150.579C75.1606 149.958 75.6657 149.451 76.2844 149.451H95.9105C96.5292 149.451 97.0343 149.958 97.0343 150.579C97.0343 151.197 96.5271 151.706 95.9105 151.706Z" fill="#E3E5FC"/>
<path d="M247.204 61.6684H227.578C226.959 61.6684 226.454 61.1615 226.454 60.5406C226.454 59.9197 226.959 59.4128 227.578 59.4128H247.204C247.823 59.4128 248.328 59.9197 248.328 60.5406C248.326 61.1615 247.821 61.6684 247.204 61.6684Z" fill="#E3E5FC"/>
<path d="M247.204 67.1468H227.578C226.959 67.1468 226.454 66.6399 226.454 66.019C226.454 65.3981 226.959 64.8912 227.578 64.8912H247.204C247.823 64.8912 248.328 65.3981 248.328 66.019C248.326 66.6399 247.821 67.1468 247.204 67.1468Z" fill="#E3E5FC"/>
<path d="M247.204 72.6251H227.578C226.959 72.6251 226.454 72.1182 226.454 71.4973C226.454 70.8764 226.959 70.3695 227.578 70.3695H247.204C247.823 70.3695 248.328 70.8764 248.328 71.4973C248.326 72.1182 247.821 72.6251 247.204 72.6251Z" fill="#E3E5FC"/>
<path d="M247.204 78.1034H227.578C226.959 78.1034 226.454 77.5966 226.454 76.9757C226.454 76.3548 226.959 75.8479 227.578 75.8479H247.204C247.823 75.8479 248.328 76.3548 248.328 76.9757C248.326 77.5966 247.821 78.1034 247.204 78.1034Z" fill="#E3E5FC"/>
<path d="M196.567 61.6684H176.94C176.322 61.6684 175.817 61.1615 175.817 60.5406C175.817 59.9197 176.322 59.4128 176.94 59.4128H196.567C197.185 59.4128 197.69 59.9197 197.69 60.5406C197.69 61.1615 197.185 61.6684 196.567 61.6684Z" fill="#E3E5FC"/>
<path d="M196.567 67.1468H176.94C176.322 67.1468 175.817 66.6399 175.817 66.019C175.817 65.3981 176.322 64.8912 176.94 64.8912H196.567C197.185 64.8912 197.69 65.3981 197.69 66.019C197.69 66.6399 197.185 67.1468 196.567 67.1468Z" fill="#E3E5FC"/>
<path d="M196.567 72.6251H176.94C176.322 72.6251 175.817 72.1182 175.817 71.4973C175.817 70.8764 176.322 70.3695 176.94 70.3695H196.567C197.185 70.3695 197.69 70.8764 197.69 71.4973C197.69 72.1182 197.185 72.6251 196.567 72.6251Z" fill="#E3E5FC"/>
<path d="M196.567 78.1034H176.94C176.322 78.1034 175.817 77.5966 175.817 76.9757C175.817 76.3548 176.322 75.8479 176.94 75.8479H196.567C197.185 75.8479 197.69 76.3548 197.69 76.9757C197.69 77.5966 197.185 78.1034 196.567 78.1034Z" fill="#E3E5FC"/>
<path d="M196.567 98.2513H176.94C176.322 98.2513 175.817 97.7444 175.817 97.1235C175.817 96.5026 176.322 95.9957 176.94 95.9957H196.567C197.185 95.9957 197.69 96.5026 197.69 97.1235C197.69 97.7444 197.185 98.2513 196.567 98.2513Z" fill="#E3E5FC"/>
<path d="M196.567 103.73H176.94C176.322 103.73 175.817 103.223 175.817 102.602C175.817 101.981 176.322 101.474 176.94 101.474H196.567C197.185 101.474 197.69 101.981 197.69 102.602C197.69 103.223 197.185 103.73 196.567 103.73Z" fill="#E3E5FC"/>
<path d="M196.567 109.208H176.94C176.322 109.208 175.817 108.701 175.817 108.08C175.817 107.459 176.322 106.952 176.94 106.952H196.567C197.185 106.952 197.69 107.459 197.69 108.08C197.69 108.701 197.185 109.208 196.567 109.208Z" fill="#E3E5FC"/>
<path d="M196.567 114.686H176.94C176.322 114.686 175.817 114.179 175.817 113.559C175.817 112.938 176.322 112.431 176.94 112.431H196.567C197.185 112.431 197.69 112.938 197.69 113.559C197.69 114.179 197.185 114.686 196.567 114.686Z" fill="#E3E5FC"/>
<path d="M247.204 98.1626H227.578C226.959 98.1626 226.454 97.6558 226.454 97.0349C226.454 96.414 226.959 95.9071 227.578 95.9071H247.204C247.823 95.9071 248.328 96.414 248.328 97.0349C248.326 97.6558 247.821 98.1626 247.204 98.1626Z" fill="#E3E5FC"/>
<path d="M247.204 103.641H227.578C226.959 103.641 226.454 103.134 226.454 102.513C226.454 101.892 226.959 101.385 227.578 101.385H247.204C247.823 101.385 248.328 101.892 248.328 102.513C248.326 103.134 247.821 103.641 247.204 103.641Z" fill="#E3E5FC"/>
<path d="M247.204 109.119H227.578C226.959 109.119 226.454 108.612 226.454 107.992C226.454 107.371 226.959 106.864 227.578 106.864H247.204C247.823 106.864 248.328 107.371 248.328 107.992C248.326 108.612 247.821 109.119 247.204 109.119Z" fill="#E3E5FC"/>
<path d="M247.204 114.598H227.578C226.959 114.598 226.454 114.091 226.454 113.47C226.454 112.849 226.959 112.342 227.578 112.342H247.204C247.823 112.342 248.328 112.849 248.328 113.47C248.326 114.091 247.821 114.598 247.204 114.598Z" fill="#E3E5FC"/>
<path d="M247.204 134.657H227.578C226.959 134.657 226.454 134.15 226.454 133.529C226.454 132.908 226.959 132.401 227.578 132.401H247.204C247.823 132.401 248.328 132.908 248.328 133.529C248.326 134.15 247.821 134.657 247.204 134.657Z" fill="#E3E5FC"/>
<path d="M247.204 140.135H227.578C226.959 140.135 226.454 139.628 226.454 139.007C226.454 138.387 226.959 137.88 227.578 137.88H247.204C247.823 137.88 248.328 138.387 248.328 139.007C248.326 139.628 247.821 140.135 247.204 140.135Z" fill="#E3E5FC"/>
<path d="M247.204 145.613H227.578C226.959 145.613 226.454 145.107 226.454 144.486C226.454 143.865 226.959 143.358 227.578 143.358H247.204C247.823 143.358 248.328 143.865 248.328 144.486C248.326 145.107 247.821 145.613 247.204 145.613Z" fill="#E3E5FC"/>
<path d="M247.204 151.092H227.578C226.959 151.092 226.454 150.585 226.454 149.964C226.454 149.343 226.959 148.836 227.578 148.836H247.204C247.823 148.836 248.328 149.343 248.328 149.964C248.326 150.585 247.821 151.092 247.204 151.092Z" fill="#E3E5FC"/>
<path d="M146.239 134.657H126.612C125.994 134.657 125.489 134.15 125.489 133.529C125.489 132.908 125.994 132.401 126.612 132.401H146.239C146.857 132.401 147.362 132.908 147.362 133.529C147.362 134.15 146.857 134.657 146.239 134.657Z" fill="#E3E5FC"/>
<path d="M146.239 140.135H126.612C125.994 140.135 125.489 139.628 125.489 139.007C125.489 138.387 125.994 137.88 126.612 137.88H146.239C146.857 137.88 147.362 138.387 147.362 139.007C147.362 139.628 146.857 140.135 146.239 140.135Z" fill="#E3E5FC"/>
<path d="M146.239 145.613H126.612C125.994 145.613 125.489 145.107 125.489 144.486C125.489 143.865 125.994 143.358 126.612 143.358H146.239C146.857 143.358 147.362 143.865 147.362 144.486C147.362 145.107 146.857 145.613 146.239 145.613Z" fill="#E3E5FC"/>
<path d="M146.239 151.092H126.612C125.994 151.092 125.489 150.585 125.489 149.964C125.489 149.343 125.994 148.836 126.612 148.836H146.239C146.857 148.836 147.362 149.343 147.362 149.964C147.362 150.585 146.857 151.092 146.239 151.092Z" fill="#E3E5FC"/>
<path d="M95.9105 61.056H76.2844C75.6657 61.056 75.1606 60.5491 75.1606 59.9282C75.1606 59.3073 75.6657 58.8004 76.2844 58.8004H95.9105C96.5292 58.8004 97.0343 59.3073 97.0343 59.9282C97.0343 60.5491 96.5271 61.056 95.9105 61.056Z" fill="#E3E5FC"/>
<path d="M95.9105 66.5344H76.2844C75.6657 66.5344 75.1606 66.0275 75.1606 65.4066C75.1606 64.7857 75.6657 64.2788 76.2844 64.2788H95.9105C96.5292 64.2788 97.0343 64.7857 97.0343 65.4066C97.0343 66.0275 96.5271 66.5344 95.9105 66.5344Z" fill="#E3E5FC"/>
<path d="M95.9105 72.0126H76.2844C75.6657 72.0126 75.1606 71.5058 75.1606 70.8849C75.1606 70.2639 75.6657 69.7571 76.2844 69.7571H95.9105C96.5292 69.7571 97.0343 70.2639 97.0343 70.8849C97.0343 71.5058 96.5271 72.0126 95.9105 72.0126Z" fill="#E3E5FC"/>
<path d="M95.9105 77.491H76.2844C75.6657 77.491 75.1606 76.9842 75.1606 76.3632C75.1606 75.7423 75.6657 75.2355 76.2844 75.2355H95.9105C96.5292 75.2355 97.0343 75.7423 97.0343 76.3632C97.0343 76.9842 96.5271 77.491 95.9105 77.491Z" fill="#E3E5FC"/>
<path d="M226.73 113.926C226.267 113.461 225.509 113.461 225.048 113.926L209.999 129.029L211.681 130.716L226.73 115.614C227.193 115.149 227.193 114.389 226.73 113.926Z" fill="#F44E4E"/>
<path d="M209.16 129.871L210.001 129.026L203.196 122.196C202.733 121.732 201.975 121.732 201.514 122.196C201.051 122.661 201.051 123.421 201.514 123.884L209.162 131.559C208.697 131.094 208.697 130.336 209.16 129.871Z" fill="#F44E4E"/>
<path d="M209.16 129.871C208.697 130.336 208.697 131.096 209.16 131.559C209.623 132.023 210.38 132.023 210.841 131.559L211.683 130.714L210.001 129.026L209.16 129.871Z" fill="#F44E4E"/>
<path d="M69.104 149.301H34.3194C30.1211 149.301 26.6866 145.854 26.6866 141.641C26.6866 137.428 30.1211 133.981 34.3194 133.981H69.104C73.3024 133.981 76.7368 137.428 76.7368 141.641C76.7368 145.854 73.3024 149.301 69.104 149.301Z" fill="#A7ADFF"/>
<path fill-rule="evenodd" clip-rule="evenodd" d="M30.5377 141.641C30.5377 144.851 33.1409 147.464 36.3397 147.464C39.5385 147.464 42.1417 144.851 42.1417 141.641C42.1417 138.431 39.5385 135.818 36.3397 135.818C33.1409 135.818 30.5377 138.431 30.5377 141.641ZM31.3269 141.641C31.3269 138.868 33.5766 136.61 36.3397 136.61C39.105 136.61 41.3525 138.868 41.3525 141.641C41.3525 144.414 39.1028 146.672 36.3397 146.672C33.5744 146.672 31.3269 144.414 31.3269 141.641Z" fill="white"/>
<rect x="35.7905" y="144.393" width="0.789171" height="1.51637" fill="white"/>
<rect x="35.7905" y="137.392" width="0.789171" height="1.51637" fill="white"/>
<rect width="4.22549" height="0.790771" transform="matrix(0.762605 -0.646865 0.644194 0.764862 36.0759 141.341)" fill="white"/>
<path d="M42.5016 127.464H7.71703C3.51864 127.464 0.0841675 124.017 0.0841675 119.804C0.0841675 115.59 3.51864 112.144 7.71703 112.144H42.5016C46.6999 112.144 50.1344 115.59 50.1344 119.804C50.1344 124.015 46.6999 127.464 42.5016 127.464Z" fill="#E3E5FC"/>
<path d="M17.2418 115.487C17.0566 115.301 16.7557 115.301 16.5726 115.487L10.5812 121.499L11.2505 122.171L17.2418 116.158C17.427 115.975 17.427 115.673 17.2418 115.487Z" fill="#A7ADFF"/>
<path d="M10.2466 121.835L10.5812 121.499L7.87067 118.779C7.68548 118.593 7.38454 118.593 7.20146 118.779C7.01626 118.965 7.01626 119.267 7.20146 119.451L10.2466 122.507C10.0635 122.323 10.0635 122.021 10.2466 121.835Z" fill="#A7ADFF"/>
<path d="M10.2466 121.835C10.0614 122.021 10.0614 122.323 10.2466 122.507C10.4318 122.693 10.7328 122.693 10.9158 122.507L11.2504 122.171L10.5812 121.5L10.2466 121.835Z" fill="#A7ADFF"/>
<path d="M246.423 134.794C246.423 134.794 241.45 143.592 233.437 141.39C225.423 139.187 219.865 127.59 217.472 128.881C215.079 130.171 209.357 128.179 215.753 126.38C218.689 125.554 219.128 125.679 219.465 125.922C223.895 129.113 229.061 134.074 231.768 136.401C234.68 138.906 238.317 137.102 241.644 135.223C244.971 133.345 257.648 129.356 246.423 134.794Z" fill="#EAC2AB"/>
<path d="M251.808 118.321L252.951 126.718C254.971 127.314 257.089 128.452 259.216 128.45C259.119 126.893 257.6 125.111 256.901 123.641C256.055 121.858 258.126 117.816 258.221 115.816C258.467 110.589 251.808 118.321 251.808 118.321Z" fill="#D4A79A"/>
<path d="M249.957 105.654C248.94 105.379 246.034 106.473 245.56 107.417C244.413 109.7 245.283 112.357 245.009 115.039C244.826 116.838 246.105 120.519 247.496 121.977C249.555 124.137 252.147 121.216 253.703 119.413C255.895 116.87 256.851 113.489 256.552 110.139C256.445 108.936 256.118 107.666 255.222 106.859C254.357 106.082 253.139 105.882 251.989 105.713C251.274 105.609 250.653 105.842 249.957 105.654Z" fill="#EAC2AB"/>
<path d="M190.891 181.214L184.866 188.12L186.96 190.378L192.819 182.798C192.821 182.798 191.855 181.4 190.891 181.214Z" fill="#EAC2AB"/>
<path d="M171.494 184.078C171.494 184.078 173.264 186.021 177.267 188.627C181.269 191.233 185.84 193.949 187.027 193.795C188.214 193.639 191.642 188.657 190.253 187.89C188.862 187.126 187.219 188.847 185.75 185.696C184.491 182.997 181.223 184.984 177.14 183.749C173.058 182.513 171.406 182.01 171.494 184.078Z" fill="#FDC510"/>
<path d="M211.321 159.176C210.685 159.172 210.029 159.178 209.446 159.43C208.798 159.708 208.312 160.255 207.844 160.786C204.505 164.568 201.051 168.249 197.49 171.823C194.031 175.292 190.4 178.71 186.03 180.917C186.392 181.622 187.183 181.968 187.9 182.302C190.853 183.675 193.494 185.715 195.571 188.228C195.765 186.287 196.665 184.427 198.063 183.073C199.06 182.106 200.281 181.409 201.445 180.655C206.691 177.261 211.003 172.596 216.085 168.961C216.313 168.798 216.548 168.634 216.818 168.557C217.171 168.456 217.548 168.515 217.912 168.574C225.877 169.854 233.937 170.545 242.004 170.642C243.868 170.665 246.196 170.342 246.785 168.566C249.167 161.39 224.413 159.846 221.218 159.592C218.076 159.343 214.457 158.762 211.321 159.176Z" fill="#4B369D"/>
<path d="M251.79 125.231C248.519 126.473 244.855 130.697 243.683 132.437C240.11 137.744 242.309 142.653 237.056 150.365C236.551 151.109 236.722 152.19 237.05 153.026C237.534 154.258 238.881 154.868 240.085 155.409C244.811 157.533 249.197 160.418 253.023 163.924C255.176 153.502 256.539 142.914 257.099 132.285C257.19 130.577 257.246 128.794 256.55 127.214C255.485 124.798 253.705 124.503 251.79 125.231Z" fill="#F44E4E"/>
<path d="M257.939 130.063C259.685 134.296 258.364 139.257 259.117 143.825C259.871 148.393 259.683 152.862 260.744 157.379C261.432 160.313 262.009 163.267 262.444 166.241C262.476 166.462 262.516 166.699 262.678 166.866C262.859 167.052 263.149 167.104 263.419 167.149C265.931 167.556 270.311 167.459 271.832 169.582C269.28 170.604 266.028 170.243 263.446 169.368C263.907 169.839 264.368 170.308 264.829 170.779C263.787 171.286 262.486 170.828 261.672 170.004C260.858 169.178 260.422 168.063 260.007 166.978C257.707 160.967 255.224 155.041 254.262 148.629C253.719 145.003 253.734 141.309 252.949 137.719C252.707 136.608 252.387 135.499 252.4 134.367C252.423 132.549 253.362 130.756 254.898 129.599C255.203 129.368 255.542 129.157 255.929 129.079C256.636 128.933 257.377 129.265 257.863 129.755C258.349 130.245 258.627 130.874 258.884 131.491" fill="#EAC2AB"/>
<path d="M213.697 175.51L212.735 184.638L215.742 185.274L216.182 175.69C216.182 175.692 214.589 175.107 213.697 175.51Z" fill="#EAC2AB"/>
<path d="M201.247 189.478C201.247 189.478 203.501 189.979 207.695 189.823C211.889 189.666 216.55 189.303 217.325 188.587C218.099 187.873 218.057 182.545 216.67 182.699C215.284 182.853 214.968 184.929 212.323 183.404C210.056 182.099 208.705 185.189 205.144 186.372C201.584 187.559 200.14 188.034 201.247 189.478Z" fill="#FDC510"/>
<path d="M252.147 154.967C253.326 155.442 254.534 156.095 255.121 157.227C255.458 157.878 255.554 158.625 255.607 159.358C255.817 162.211 255.354 165.347 253.307 167.339C252.305 168.315 251.013 168.927 249.715 169.442C246.64 170.661 243.252 171.426 240.028 170.688C236.484 169.878 233.578 167.36 231.147 164.646C229.082 162.34 227.243 159.827 225.667 157.159C224.785 155.668 223.836 154 222.192 153.468C220.9 157.398 221.843 161.692 221.397 165.806C221.144 168.142 220.442 170.41 220.21 172.748C219.979 175.086 220.286 177.622 221.797 179.417C220.528 180.625 218.499 180.139 216.782 179.818C214.64 179.419 212.428 179.413 210.283 179.795C209.738 179.892 209.113 179.996 208.686 179.643C208.335 179.354 208.248 178.847 208.267 178.389C208.337 176.849 209.309 175.516 209.806 174.057C210.391 172.334 210.298 170.469 210.389 168.65C210.685 162.589 213.055 156.76 213.24 150.695C213.293 148.957 213.166 147.197 213.524 145.497C213.882 143.797 214.831 142.101 216.416 141.4C218.272 140.581 220.768 140.701 222.3 142.032C223.243 142.851 233.087 149.197 241.568 153.25C244.967 154.876 248.658 153.559 252.147 154.967Z" fill="#5651D4"/>
<path d="M271.982 143.622C271.616 143.599 271.273 143.525 271.035 143.265C270.622 142.813 270.761 142.11 270.685 141.502C270.519 140.167 269.433 139.197 269.355 137.827C269.265 136.23 270.225 134.773 269.722 133.147C269.214 131.508 267.836 129.926 266.723 128.669C265.807 127.635 264.522 126.817 263.924 125.531C263.362 124.321 263.804 122.967 263.993 121.725C264.2 120.363 263.589 119.656 263.469 118.361C263.387 117.483 263.861 116.661 263.783 115.789C263.903 115.259 264.014 114.71 264.096 114.177C264.45 111.924 262.226 110.699 261.119 109.166C259.961 107.561 261.093 104.781 259.755 102.885C257.97 100.357 254.201 100.006 251.409 100.562C249.353 100.971 248.477 102.258 246.989 103.533C246.356 104.076 245.451 104.184 244.735 104.579C243.683 105.157 242.989 106.038 242.492 107.174C242.366 107.461 242.298 107.782 242.309 108.093C242.32 108.391 242.399 108.68 242.574 108.921C243.09 109.641 244.167 109.66 245.007 109.379C248.393 108.247 253.01 108.443 253.111 113.176C253.155 115.197 252.267 117.119 252.013 119.109C251.729 121.322 254.54 122.281 255.405 123.928C256.247 125.529 256.821 127.62 256.798 129.451C256.798 129.451 255.376 131.911 255.514 134.581C255.624 136.695 256.95 136.688 258.073 137.455C258.764 137.926 258.377 139.926 258.549 140.629C258.882 141.985 259.995 142.883 260.435 144.179C260.908 145.58 260.853 146.488 262.215 147.428C265.088 149.413 268.953 148.931 271.74 147.02C272.386 146.577 273.922 145.508 273.832 144.545C273.728 143.478 272.8 143.677 271.982 143.622Z" fill="#4B369D"/>
</svg>
