<svg width="20" height="20" viewBox="0 0 20 20" fill="none" xmlns="http://www.w3.org/2000/svg">
<path d="M19 9.29102C19 13.83 14.952 17.473 10 17.473C9.35901 17.473 8.73501 17.41 8.13101 17.294" stroke="#5651D4" stroke-width="1.5" stroke-linecap="round" stroke-linejoin="round"/>
<path d="M4.599 15.826C2.42 14.336 1 11.974 1 9.29102" stroke="#5651D4" stroke-width="1.5" stroke-linecap="round" stroke-linejoin="round"/>
<path d="M4.59901 15.826C4.59801 16.68 4.60001 17.832 4.60001 19.041" stroke="#5651D4" stroke-width="1.5" stroke-linecap="round" stroke-linejoin="round"/>
<path d="M1 9.29099C1 4.75199 5.048 1.10999 10 1.10999C14.952 1.10999 19 4.75299 19 9.29199" stroke="#5651D4" stroke-width="1.5" stroke-linecap="round" stroke-linejoin="round"/>
<path d="M8.13001 17.29L4.60001 19.04" stroke="#5651D4" stroke-width="1.5" stroke-linecap="round" stroke-linejoin="round"/>
<path d="M10.1768 9.32316C10.2744 9.42079 10.2744 9.57908 10.1768 9.67672C10.0792 9.77435 9.92089 9.77435 9.82325 9.67672C9.72562 9.57908 9.72562 9.42079 9.82325 9.32316C9.92089 9.22553 10.0792 9.22553 10.1768 9.32316" stroke="#5651D4" stroke-width="1.5" stroke-linecap="round" stroke-linejoin="round"/>
<path d="M14.1768 9.32316C14.2744 9.42079 14.2744 9.57908 14.1768 9.67672C14.0792 9.77435 13.9209 9.77435 13.8233 9.67672C13.7256 9.57908 13.7256 9.42079 13.8233 9.32316C13.9209 9.22553 14.0792 9.22553 14.1768 9.32316" stroke="#5651D4" stroke-width="1.5" stroke-linecap="round" stroke-linejoin="round"/>
<path d="M6.17678 9.32316C6.27441 9.42079 6.27441 9.57908 6.17678 9.67672C6.07915 9.77435 5.92085 9.77435 5.82322 9.67672C5.72559 9.57908 5.72559 9.42079 5.82322 9.32316C5.92085 9.22553 6.07915 9.22553 6.17678 9.32316" stroke="#5651D4" stroke-width="1.5" stroke-linecap="round" stroke-linejoin="round"/>
</svg>
