<svg width="24" height="24" viewBox="0 0 24 24" fill="none" xmlns="http://www.w3.org/2000/svg">
<path d="M9.66464 18.1901V18.6703C9.66464 19.2892 9.91048 19.8827 10.3481 20.3203C10.7857 20.7579 11.3792 21.0037 11.9981 21.0037H12C12.6191 21.004 13.213 20.7583 13.6509 20.3207C14.0889 19.8831 14.3351 19.2894 14.3353 18.6703V18.1901" stroke="#F8A53B" stroke-width="1.5" stroke-linecap="round" stroke-linejoin="round"/>
<path fill-rule="evenodd" clip-rule="evenodd" d="M17.5776 18.1901C18.641 18.1901 19.5031 17.328 19.5031 16.2646V16.2646C19.5027 15.7244 19.2882 15.2064 18.9066 14.824L17.6273 13.5456V9.74906C17.6273 6.64117 15.1079 4.12172 12 4.12172V4.12172C8.89209 4.12172 6.37264 6.64117 6.37264 9.74906V13.5456L5.09336 14.824C4.71178 15.2064 4.49729 15.7244 4.49686 16.2646V16.2646C4.49686 17.328 5.35893 18.1901 6.42235 18.1901H17.5776V18.1901Z" stroke="#F8A53B" stroke-width="1.5" stroke-linecap="round" stroke-linejoin="round"/>
<path d="M22.0255 2.99625L20.0246 4.33012" stroke="#F8A53B" stroke-width="1.5" stroke-linecap="round" stroke-linejoin="round"/>
<path d="M23.0046 8.99875H21.0251" stroke="#F8A53B" stroke-width="1.5" stroke-linecap="round" stroke-linejoin="round"/>
<path d="M1.97452 2.99625L3.97535 4.33012" stroke="#F8A53B" stroke-width="1.5" stroke-linecap="round" stroke-linejoin="round"/>
<path d="M0.995422 8.99875H2.97495" stroke="#F8A53B" stroke-width="1.5" stroke-linecap="round" stroke-linejoin="round"/>
</svg>
